<?xml version="1.0" encoding="UTF-8"?><svg id="Layer_2" xmlns="http://www.w3.org/2000/svg" viewBox="0 0 489 368"><path id="c" d="m244.36,240.01l24.85,57.83c-22.8,15.26-50.22,24.16-79.71,24.16-79.25,0-143.5-64.25-143.5-143.5S110.25,35,189.5,35c29.52,0,56.96,8.91,79.77,24.2l-25.18,60.99c-19.2-17.08-48.27-21.49-73.44-15.91-3.35.92-6.62,2.06-9.78,3.4-28.46,12.03-48.42,40.21-48.42,73.05,0,43.78,35.49,79.27,79.28,79.27,20.2,0,38.64-7.55,52.63-19.99Z" style="stroke-width:0px;"/><polygon id="h" points="433 41 433 319 366 319 366 209 260 209 260 144 366 144 366 41 433 41" style="stroke-width:0px;"/></svg>